<svg id="visual" viewBox="0 0 900 450" width="900" height="450" xmlns="http://www.w3.org/2000/svg" xmlns:xlink="http://www.w3.org/1999/xlink" version="1.1"><path d="M0 51L13.7 51.7C27.3 52.3 54.7 53.7 82 53.7C109.3 53.7 136.7 52.3 163.8 48.7C191 45 218 39 245.2 46.5C272.3 54 299.7 75 327 75.7C354.3 76.3 381.7 56.7 409 55.8C436.3 55 463.7 73 491 81.3C518.3 89.7 545.7 88.3 573 88.3C600.3 88.3 627.7 89.7 654.8 91.2C682 92.7 709 94.3 736.2 86.8C763.3 79.3 790.7 62.7 818 58.2C845.3 53.7 872.7 61.3 886.3 65.2L900 69L900 0L886.3 0C872.7 0 845.3 0 818 0C790.7 0 763.3 0 736.2 0C709 0 682 0 654.8 0C627.7 0 600.3 0 573 0C545.7 0 518.3 0 491 0C463.7 0 436.3 0 409 0C381.7 0 354.3 0 327 0C299.7 0 272.3 0 245.2 0C218 0 191 0 163.8 0C136.7 0 109.3 0 82 0C54.7 0 27.3 0 13.7 0L0 0Z" fill="#6198ff"></path><path d="M0 181L13.7 178C27.3 175 54.7 169 82 173.5C109.3 178 136.7 193 163.8 190C191 187 218 166 245.2 156.3C272.3 146.7 299.7 148.3 327 156.7C354.3 165 381.7 180 409 182.2C436.3 184.3 463.7 173.7 491 182.7C518.3 191.7 545.7 220.3 573 233.2C600.3 246 627.7 243 654.8 226.5C682 210 709 180 736.2 160.5C763.3 141 790.7 132 818 136.5C845.3 141 872.7 159 886.3 168L900 177L900 67L886.3 63.2C872.7 59.3 845.3 51.7 818 56.2C790.7 60.7 763.3 77.3 736.2 84.8C709 92.3 682 90.7 654.8 89.2C627.7 87.7 600.3 86.3 573 86.3C545.7 86.3 518.3 87.7 491 79.3C463.7 71 436.3 53 409 53.8C381.7 54.7 354.3 74.3 327 73.7C299.7 73 272.3 52 245.2 44.5C218 37 191 43 163.8 46.7C136.7 50.3 109.3 51.7 82 51.7C54.7 51.7 27.3 50.3 13.7 49.7L0 49Z" fill="#3c80ff"></path><path d="M0 217L13.7 214C27.3 211 54.7 205 82 214C109.3 223 136.7 247 163.8 246.3C191 245.7 218 220.3 245.2 208.3C272.3 196.3 299.7 197.7 327 210.3C354.3 223 381.7 247 409 250C436.3 253 463.7 235 491 237.3C518.3 239.7 545.7 262.3 573 278.2C600.3 294 627.7 303 654.8 288C682 273 709 234 736.2 215.2C763.3 196.3 790.7 197.7 818 204.3C845.3 211 872.7 223 886.3 229L900 235L900 175L886.3 166C872.7 157 845.3 139 818 134.5C790.7 130 763.3 139 736.2 158.5C709 178 682 208 654.8 224.5C627.7 241 600.3 244 573 231.2C545.7 218.3 518.3 189.7 491 180.7C463.7 171.7 436.3 182.3 409 180.2C381.7 178 354.3 163 327 154.7C299.7 146.3 272.3 144.7 245.2 154.3C218 164 191 185 163.8 188C136.7 191 109.3 176 82 171.5C54.7 167 27.3 173 13.7 176L0 179Z" fill="#0066ff"></path><path d="M0 280L13.7 286.8C27.3 293.7 54.7 307.3 82 314.8C109.3 322.3 136.7 323.7 163.8 314.7C191 305.7 218 286.3 245.2 280.3C272.3 274.3 299.7 281.7 327 289.8C354.3 298 381.7 307 409 304.8C436.3 302.7 463.7 289.3 491 290.8C518.3 292.3 545.7 308.7 573 322.2C600.3 335.7 627.7 346.3 654.8 338.8C682 331.3 709 305.7 736.2 291.3C763.3 277 790.7 274 818 275.5C845.3 277 872.7 283 886.3 286L900 289L900 233L886.3 227C872.7 221 845.3 209 818 202.3C790.7 195.7 763.3 194.3 736.2 213.2C709 232 682 271 654.8 286C627.7 301 600.3 292 573 276.2C545.7 260.3 518.3 237.7 491 235.3C463.7 233 436.3 251 409 248C381.7 245 354.3 221 327 208.3C299.7 195.7 272.3 194.3 245.2 206.3C218 218.3 191 243.7 163.8 244.3C136.7 245 109.3 221 82 212C54.7 203 27.3 209 13.7 212L0 215Z" fill="#0059dd"></path><path d="M0 451L13.7 451C27.3 451 54.7 451 82 451C109.3 451 136.7 451 163.8 451C191 451 218 451 245.2 451C272.3 451 299.7 451 327 451C354.3 451 381.7 451 409 451C436.3 451 463.7 451 491 451C518.3 451 545.7 451 573 451C600.3 451 627.7 451 654.8 451C682 451 709 451 736.2 451C763.3 451 790.7 451 818 451C845.3 451 872.7 451 886.3 451L900 451L900 287L886.3 284C872.7 281 845.3 275 818 273.5C790.7 272 763.3 275 736.2 289.3C709 303.7 682 329.3 654.8 336.8C627.7 344.3 600.3 333.7 573 320.2C545.7 306.7 518.3 290.3 491 288.8C463.7 287.3 436.3 300.7 409 302.8C381.7 305 354.3 296 327 287.8C299.7 279.7 272.3 272.3 245.2 278.3C218 284.3 191 303.7 163.8 312.7C136.7 321.7 109.3 320.3 82 312.8C54.7 305.3 27.3 291.7 13.7 284.8L0 278Z" fill="#004cbb"></path></svg>