<svg id="visual" viewBox="0 0 1366 768" width="1366" height="768" xmlns="http://www.w3.org/2000/svg" xmlns:xlink="http://www.w3.org/1999/xlink" version="1.1"><rect x="0" y="0" width="1366" height="768" fill="#002233"></rect><path d="M0 182L57 178.8C114 175.7 228 169.3 341.8 182.8C455.7 196.3 569.3 229.7 683.2 229.7C797 229.7 911 196.3 1024.8 190.2C1138.7 184 1252.3 205 1309.2 215.5L1366 226L1366 0L1309.2 0C1252.3 0 1138.7 0 1024.8 0C911 0 797 0 683.2 0C569.3 0 455.7 0 341.8 0C228 0 114 0 57 0L0 0Z" fill="#0066FF" stroke-linecap="round" stroke-linejoin="miter"></path></svg>