<svg id="visual" viewBox="0 0 1366 768" width="1366" height="768" xmlns="http://www.w3.org/2000/svg" xmlns:xlink="http://www.w3.org/1999/xlink" version="1.1"><path d="M0 584L57 587.2C114 590.3 228 596.7 341.8 583.2C455.7 569.7 569.3 536.3 683.2 536.3C797 536.3 911 569.7 1024.8 575.8C1138.7 582 1252.3 561 1309.2 550.5L1366 540L1366 769L1309.2 769C1252.3 769 1138.7 769 1024.8 769C911 769 797 769 683.2 769C569.3 769 455.7 769 341.8 769C228 769 114 769 57 769L0 769Z" fill="#0066FF" stroke-linecap="round" stroke-linejoin="miter"></path></svg>