<svg id="visual" viewBox="0 0 1366 768" width="1366" height="768" xmlns="http://www.w3.org/2000/svg" xmlns:xlink="http://www.w3.org/1999/xlink" version="1.1"><path d="M0 652L32.5 664.2C65 676.3 130 700.7 195 712.3C260 724 325 723 390 717.3C455 711.7 520 701.3 585.2 698.3C650.3 695.3 715.7 699.7 780.8 702C846 704.3 911 704.7 976 701.8C1041 699 1106 693 1171 689.2C1236 685.3 1301 683.7 1333.5 682.8L1366 682L1366 769L1333.5 769C1301 769 1236 769 1171 769C1106 769 1041 769 976 769C911 769 846 769 780.8 769C715.7 769 650.3 769 585.2 769C520 769 455 769 390 769C325 769 260 769 195 769C130 769 65 769 32.5 769L0 769Z" fill="#0066FF" stroke-linecap="round" stroke-linejoin="miter"></path></svg>